<svg id="regular" height="512" viewBox="0 0 24 24" width="512" xmlns="http://www.w3.org/2000/svg"><path d="m15.365 18c-1.274 0-2.503-.487-3.365-1.32-.862.833-2.09 1.32-3.365 1.32-2.005 0-3.635-1.479-3.635-3.295 0-.285.161-.545.416-.671.254-.127.559-.099.787.073.586.443.765.251.925.083l.854-1.136c.786-1.041 2.34-1.359 3.539-.724.292.154.669.154.961 0 1.199-.635 2.753-.317 3.539.724l.906 1.199c.106.105.287.296.872-.146.227-.172.532-.2.787-.073.253.126.414.386.414.671 0 1.816-1.63 3.295-3.635 3.295z" fill="#607d8b"/><path d="m18.277 23.25h-12.494c-1.121 0-2.033-.912-2.033-2.033v-8.301h-1.614c-.626.001-1.136-.509-1.136-1.135 0-.302.123-.597.337-.81l10.186-9.529c.272-.261.702-.254.966.014l3.468 3.265v-1.867c0-.38.308-.688.688-.688h3.167c.38 0 .688.308.688.688v6.25l2.13 1.826c.247.243.37.539.37.841 0 .626-.51 1.136-1.136 1.136h-1.614v8.311c0 1.139-.867 2.032-1.973 2.032zm3.416-11.314h.009z" fill="#cfd8dc"/><path d="m15.134 17.252c-1.092 0-2.395-.575-3.134-1.131-.739.556-2.042 1.131-3.134 1.131-1.718 0-3.116-.986-3.116-2.198 0-.19.138-.363.357-.448.218-.085.479-.066.674.049.503.296.656.168.793.056l.732-.758c.674-.694 2.256-1.406 3.283-.983.25.103.573.103.824 0 1.027-.423 2.609.289 3.283.983l.776.8c.091.07.246.197.747-.097.195-.115.455-.133.674-.049.218.084.357.258.357.448 0 1.21-1.397 2.197-3.116 2.197z" fill="#ffc107"/><path d="m15.365 18c-1.274 0-2.503-.487-3.365-1.32-.862.833-2.09 1.32-3.365 1.32-2.005 0-3.635-1.479-3.635-3.295 0-.285.161-.545.416-.671.254-.127.559-.099.787.073.586.443.765.251.925.083l.854-1.136c.786-1.041 2.34-1.359 3.539-.724.292.154.669.154.961 0 1.199-.635 2.753-.317 3.539.724l.906 1.199c.106.105.287.296.872-.146.227-.172.532-.2.787-.073.253.126.414.386.414.671 0 1.816-1.63 3.295-3.635 3.295zm-3.365-2.985c.335 0 .648.143.86.392.582.685 1.519 1.093 2.505 1.093.651 0 1.235-.247 1.626-.634-.584-.074-.999-.423-1.21-.647l-.959-1.261c-.348-.46-1.083-.596-1.64-.303-.729.387-1.636.387-2.365 0-.555-.293-1.291-.157-1.64.303l-.907 1.199c-.241.259-.673.627-1.267.705.392.39.978.638 1.631.638.987 0 1.923-.409 2.505-1.093.213-.249.526-.392.861-.392z"/><path d="m18.848 24h-13.631c-1.222 0-2.217-.995-2.217-2.217v-8.783h-1.761c-.683 0-1.239-.556-1.239-1.239 0-.329.134-.651.368-.884l11.112-10.668c.297-.284.768-.277 1.054.015l2.966 3.017v-1.491c0-.414.336-.75.75-.75h4c.414 0 .75.336.75.75v6.818l2.596 2.265c.27.266.404.588.404.917 0 .683-.556 1.239-1.239 1.239h-1.761v8.793c0 1.244-.945 2.218-2.152 2.218zm-16.963-12.5h1.865c.414 0 .75.336.75.75v9.533c0 .396.322.717.717.717h13.63c.372 0 .652-.309.652-.717v-9.543c0-.414.336-.75.75-.75h1.819l-2.312-2.016c-.162-.142-.256-.349-.256-.565v-6.409h-2.5v2.574c0 .305-.184.579-.466.694-.283.116-.606.048-.819-.168l-3.73-3.795zm20.689.43h.01z"/></svg>