<svg height="512" viewBox="0 0 64 64" width="512" xmlns="http://www.w3.org/2000/svg"><g id="File"><path d="m8 3h42v52h-42z" fill="#ffb655"/><path d="m14 9h42v52h-42z" fill="#ffdaaa"/><path d="m54 9v11a40.992 40.992 0 0 1 -40 40.975v.025h42v-52z" fill="#ffc477"/><path d="m59 57h-1v-1a12.991 12.991 0 0 0 -7-11.526 12.8 12.8 0 0 0 -3-1.124v-.35a2 2 0 0 0 -2-2h-2a2 2 0 0 0 -2 2v.35a13 13 0 0 0 -10 12.65v1h-1a2 2 0 0 0 0 4h28a2 2 0 0 0 0-4z" fill="#ffcd00"/><path d="m59 57h-1v-1a12.991 12.991 0 0 0 -7-11.526 12.8 12.8 0 0 0 -3-1.124v-.35a2 2 0 0 0 -2-2h-2a2 2 0 0 1 2 2v.35a12.8 12.8 0 0 1 3 1.124 12.991 12.991 0 0 1 7 11.526v1h1a2 2 0 0 1 0 4h2a2 2 0 0 0 0-4z" fill="#ddb200"/><path d="m22 15h26v8h-26z" fill="#ff6243"/><g fill="#231f20"><path d="m59 56a14.008 14.008 0 0 0 -2-7.22v-39.78a1 1 0 0 0 -1-1h-5v-5a1 1 0 0 0 -1-1h-42a1 1 0 0 0 -1 1v52a1 1 0 0 0 1 1h5v5a1 1 0 0 0 1 1h45a3 3 0 0 0 0-6zm-46-47v45h-4v-50h40v4h-35a1 1 0 0 0 -1 1zm15.18 51h-13.18v-50h40v36.19a13.954 13.954 0 0 0 -6.04-3.61 3 3 0 0 0 -2.96-2.58h-2a3 3 0 0 0 -2.96 2.58 13.935 13.935 0 0 0 -10.04 13.42 2.98 2.98 0 0 0 -2.82 4zm30.82 0h-28a1 1 0 0 1 0-2 1 1 0 0 0 2 0v-2a11.942 11.942 0 0 1 5-9.75v1.75a1 1 0 0 0 2 0v-2.91c.33-.15.66-.28 1-.4v6.31a1 1 0 0 0 2 0v-8a1 1 0 0 1 1-1h2a1 1 0 0 1 1 1v8a1 1 0 0 0 2 0v-6.31c.34.12.67.25 1 .4v2.91a1 1 0 0 0 2 0v-1.75a11.942 11.942 0 0 1 5 9.75v2a1 1 0 0 0 2 0 1 1 0 0 1 0 2z"/><path d="m55 56h-7v-1a2 2 0 0 0 -2-2h-2a2 2 0 0 0 -2 2v1h-6a1 1 0 0 0 0 2h7a1 1 0 0 0 1-1v-2h2v2a1 1 0 0 0 1 1h8a1 1 0 0 0 0-2z"/><path d="m22 24h26a1 1 0 0 0 1-1v-8a1 1 0 0 0 -1-1h-26a1 1 0 0 0 -1 1v8a1 1 0 0 0 1 1zm1-8h24v6h-24z"/><path d="m24 28h-2a1 1 0 0 0 0 2h2a1 1 0 0 0 0-2z"/><path d="m48 28h-20a1 1 0 0 0 0 2h20a1 1 0 0 0 0-2z"/><path d="m24 32h-2a1 1 0 0 0 0 2h2a1 1 0 0 0 0-2z"/><path d="m48 32h-20a1 1 0 0 0 0 2h20a1 1 0 0 0 0-2z"/><path d="m24 36h-2a1 1 0 0 0 0 2h2a1 1 0 0 0 0-2z"/><path d="m48 36h-20a1 1 0 0 0 0 2h20a1 1 0 0 0 0-2z"/><path d="m24 40h-2a1 1 0 0 0 0 2h2a1 1 0 0 0 0-2z"/><path d="m38 40h-10a1 1 0 0 0 0 2h10a1 1 0 0 0 0-2z"/><path d="m24 44h-2a1 1 0 0 0 0 2h2a1 1 0 0 0 0-2z"/><path d="m33 46a1 1 0 0 0 0-2h-5a1 1 0 0 0 0 2z"/></g></g></svg>